<svg width="181" height="52" viewBox="0 0 181 52" fill="#ffffff" xmlns="http://www.w3.org/2000/svg">
<path d="M16.2649 49.3013C16.8531 49.3013 17.4403 49.2534 18.0207 49.158C18.2069 49.1278 18.3984 49.0911 18.5882 49.049C19.652 48.814 20.674 48.4189 21.6192 47.8772C24.4407 46.2658 26.6631 43.3239 27.8769 39.5937C28.2854 38.3307 28.5742 37.0322 28.7395 35.7152C29.1418 35.7545 29.5477 35.7764 29.9576 35.7764C32.4431 35.7764 35.0541 35.0577 37.6193 33.6545C40.935 31.8407 43.871 29.0376 46.1098 25.5482C51.1698 17.6646 51.3082 8.30461 46.4396 3.29295C45.6041 2.43119 44.6293 1.71646 43.5562 1.1788C40.3278 -0.440998 36.3533 -0.389894 32.3654 1.32241C28.436 3.00937 24.839 6.1721 22.2368 10.2273C21.4675 11.4251 20.7983 12.6844 20.2362 13.9923C17.956 12.3156 15.3969 11.3503 12.7741 11.3173C11.9529 11.307 11.1331 11.391 10.3309 11.5676C9.96248 11.6486 9.59868 11.7495 9.24117 11.87C5.81572 13.0144 3.04733 15.8664 1.4461 19.9007C-0.131871 23.8743 -0.429527 28.6547 0.607681 33.36C2.65999 42.675 9.32669 49.3013 16.2649 49.3013V49.3013ZM45.7975 5.0817C47.4807 7.16039 48.3714 10.0592 48.3203 13.3467C48.2623 17.0926 46.9784 21.1062 44.7054 24.6471C42.617 27.902 39.8897 30.5106 36.8185 32.1906C34.2024 33.6217 31.4591 34.273 28.9964 34.0632C33.8476 30.2534 37.1142 24.7804 38.1649 18.7021C39.0044 13.8732 41.3435 9.43137 44.8502 6.007L45.7975 5.0817ZM42.0409 4.20438L43.3246 2.95107C43.4289 3.0125 43.5338 3.0756 43.6375 3.14162C43.9868 3.36597 44.3202 3.61415 44.6353 3.8844L43.6844 4.81262C39.9265 8.48203 37.42 13.2419 36.5206 18.4166C35.6121 23.6722 32.9253 28.456 28.9103 31.9668C28.8877 31.2918 28.8371 30.6124 28.7583 29.9286C32.208 26.3411 34.5057 21.8038 35.3561 16.9C36.1859 12.0678 38.5263 7.62296 42.0409 4.20438V4.20438ZM23.6409 11.1285C28.2567 3.93509 35.9535 0.220333 41.7009 2.20464L40.8752 3.01083C37.1091 6.67384 34.6012 11.4365 33.712 16.6145C32.9942 20.7562 31.1677 24.6261 28.4266 27.813C28.3898 27.6275 28.3518 27.442 28.3109 27.2565C27.2048 22.2366 24.738 17.9534 21.5825 15.0948C22.1444 13.7118 22.8335 12.384 23.6409 11.1285V11.1285ZM13.5765 14.3594L13.5896 13.0349C16.25 13.3096 18.9322 14.7244 21.2255 17.08C23.8386 19.7647 25.7763 23.5063 26.6818 27.6157C27.551 31.5617 27.4119 35.6323 26.2908 39.0776C25.4326 41.7143 24.0318 43.8976 22.2669 45.3911C22.9908 39.2652 21.4183 33.0885 17.8532 28.0546C15.0626 24.1216 13.5672 19.4166 13.5749 14.5942C13.5749 14.5164 13.5749 14.4395 13.576 14.3594H13.5765ZM10.3173 15.0777L10.3343 13.2838C10.452 13.2525 10.5703 13.2234 10.6894 13.1973C11.0953 13.1081 11.5068 13.047 11.921 13.0142L11.9079 14.3411C11.9067 14.426 11.9067 14.5096 11.9067 14.5945C11.8983 19.7621 13.5008 24.8039 16.4911 29.0184C19.8626 33.7786 21.3234 39.6314 20.5843 45.4176L20.4317 46.6233C19.9304 46.8819 19.4061 47.0934 18.8656 47.255L18.9803 46.3457C19.1121 45.3025 19.1782 44.2521 19.1784 43.2007C19.1874 38.0318 17.5849 32.9888 14.594 28.7732C11.7557 24.7753 10.2582 19.9803 10.3168 15.0777H10.3173ZM8.659 13.9076L8.64805 15.0614C8.58538 20.3148 10.1901 25.4528 13.2315 29.7367C16.0226 33.6705 17.5182 38.3766 17.51 43.2C17.5098 44.1814 17.4479 45.1619 17.3248 46.1355L17.1408 47.5901C14.1709 47.8717 11.082 46.6834 8.37646 44.2005C5.40877 41.4769 3.2286 37.4995 2.23749 33.001C0.397423 24.6546 3.19627 16.5805 8.659 13.9076V13.9076Z" />
<path d="M28.5912 10.4017C28.802 10.4019 29.0051 10.3221 29.1593 10.1783C29.5093 9.85265 29.8773 9.53789 30.2529 9.24274C30.3391 9.17503 30.411 9.09102 30.4647 8.9955C30.5184 8.89998 30.5528 8.79482 30.5658 8.68602C30.5788 8.57723 30.5703 8.46694 30.5407 8.36144C30.5111 8.25593 30.4611 8.15729 30.3934 8.07114C30.3257 7.985 30.2416 7.91303 30.1461 7.85935C30.0506 7.80566 29.9454 7.77132 29.8367 7.75828C29.7279 7.74524 29.6176 7.75376 29.5121 7.78334C29.4066 7.81293 29.3079 7.86301 29.2218 7.93071C28.81 8.25402 28.4066 8.59934 28.0224 8.95634C27.8997 9.07049 27.8141 9.21896 27.777 9.3824C27.7399 9.54584 27.7528 9.71668 27.8141 9.87267C27.8755 10.0286 27.9824 10.1625 28.1209 10.2569C28.2594 10.3512 28.4232 10.4017 28.5908 10.4017H28.5912Z" />
<path d="M24.3278 15.525C24.4259 15.5739 24.5326 15.6029 24.6419 15.6105C24.7512 15.618 24.861 15.604 24.9648 15.5691C25.0687 15.5342 25.1647 15.4792 25.2473 15.4072C25.3299 15.3353 25.3975 15.2477 25.4462 15.1495C25.9779 14.0809 26.6183 13.0699 27.3574 12.1326C27.4269 12.0468 27.4786 11.948 27.5096 11.842C27.5406 11.736 27.5502 11.6249 27.538 11.5152C27.5257 11.4054 27.4918 11.2992 27.4382 11.2027C27.3845 11.1061 27.3123 11.0212 27.2256 10.9528C27.1389 10.8844 27.0395 10.8339 26.9331 10.8042C26.8268 10.7745 26.7156 10.7662 26.606 10.7798C26.4964 10.7934 26.3906 10.8287 26.2947 10.8835C26.1989 10.9383 26.1148 11.0115 26.0475 11.0991C25.2371 12.1266 24.5349 13.235 23.9521 14.4067C23.8537 14.6048 23.8379 14.8339 23.9084 15.0436C23.9788 15.2533 24.1297 15.4265 24.3278 15.525V15.525Z" />
<path d="M8.18613 41.4314C8.32996 41.5996 8.53472 41.7038 8.75537 41.721C8.97601 41.7383 9.19447 41.6671 9.36267 41.5233C9.53087 41.3795 9.63505 41.1747 9.65228 40.9541C9.66951 40.7334 9.59839 40.515 9.45455 40.3468C9.14386 39.9833 8.84454 39.6025 8.56545 39.215C8.4361 39.0354 8.24073 38.9146 8.02231 38.8791C7.80388 38.8436 7.5803 38.8963 7.40074 39.0256C7.22118 39.1549 7.10036 39.3503 7.06485 39.5687C7.02934 39.7872 7.08205 40.0108 7.21139 40.1903C7.51791 40.6154 7.84581 41.0329 8.18613 41.4314Z" />
<path d="M10.2446 43.4946C11.2373 44.3473 12.3154 45.0952 13.4618 45.7265C13.5578 45.7797 13.6634 45.8135 13.7724 45.8258C13.8815 45.8382 13.992 45.8289 14.0975 45.7985C14.203 45.7681 14.3014 45.7171 14.3872 45.6486C14.473 45.5801 14.5444 45.4953 14.5973 45.3991C14.6502 45.3029 14.6837 45.1972 14.6957 45.0881C14.7077 44.979 14.6981 44.8686 14.6673 44.7632C14.6366 44.6578 14.5854 44.5595 14.5165 44.4739C14.4477 44.3884 14.3627 44.3172 14.2664 44.2646C13.2208 43.6888 12.2375 43.0067 11.332 42.2291C11.1638 42.0869 10.9464 42.017 10.7269 42.0345C10.5075 42.052 10.3039 42.1555 10.1604 42.3225C10.0169 42.4895 9.9453 42.7064 9.96107 42.926C9.97684 43.1456 10.0787 43.35 10.2446 43.4948V43.4946Z" />
<path d="M60.808 27.076L61.024 29.38C61.024 29.62 60.892 29.812 60.628 29.956C60.388 30.1 60.184 30.172 60.016 30.172C59.68 30.172 59.38 29.908 59.116 29.38C58.876 28.828 58.756 28.324 58.756 27.868C58.756 26.092 59.368 24.592 60.592 23.368C61.84 22.12 63.412 21.184 65.308 20.56C65.308 19.744 65.476 18.976 65.812 18.256C66.172 17.512 66.724 17.14 67.468 17.14C67.78 17.14 67.936 17.584 67.936 18.472V19.984C68.704 19.888 69.268 19.84 69.628 19.84C72.82 19.84 75.34 20.74 77.188 22.54C79.06 24.316 79.996 26.56 79.996 29.272C79.996 31.144 79.66 32.8 78.988 34.24C78.316 35.68 77.404 36.82 76.252 37.66C73.948 39.34 71.188 40.18 67.972 40.18H67.216C67.144 40.876 67.048 41.224 66.928 41.224C65.8 41.224 65.044 41.068 64.66 40.756C64.492 40.588 64.396 40.3 64.372 39.892C62.236 39.292 61.168 38.632 61.168 37.912C61.168 37.672 61.252 37.492 61.42 37.372C61.588 37.228 61.768 37.156 61.96 37.156C62.176 37.156 62.98 37.444 64.372 38.02C64.588 31.732 64.864 26.332 65.2 21.82C63.88 22.276 62.812 22.96 61.996 23.872C61.204 24.784 60.808 25.852 60.808 27.076ZM68.656 21.244C68.32 21.244 68.068 21.256 67.9 21.28C67.804 25.48 67.684 29.008 67.54 31.864C67.42 35.584 67.336 37.924 67.288 38.884C67.768 38.956 68.272 38.992 68.8 38.992C71.08 38.992 73.06 38.152 74.74 36.472C76.42 34.768 77.26 32.68 77.26 30.208C77.26 27.736 76.456 25.624 74.848 23.872C73.24 22.12 71.176 21.244 68.656 21.244ZM91.6707 40.18C90.7347 40.18 90.0267 39.988 89.5467 39.604C89.3787 39.436 89.2947 39.016 89.2947 38.344C89.2947 37.648 89.3187 36.724 89.3667 35.572C88.7427 37.132 88.1187 38.296 87.4947 39.064C86.8947 39.808 86.1147 40.18 85.1547 40.18C84.1947 40.18 83.3547 39.736 82.6347 38.848C81.9147 37.936 81.5547 36.52 81.5547 34.6C81.5547 32.656 82.0947 30.94 83.1747 29.452C84.2787 27.964 85.7187 27.22 87.4947 27.22C88.2627 27.22 89.1267 27.724 90.0867 28.732C90.2787 28.468 90.6147 28.156 91.0947 27.796C91.5987 27.412 92.0187 27.22 92.3547 27.22C92.7147 27.22 92.8947 27.676 92.8947 28.588C92.8947 28.828 92.8227 29.296 92.6787 29.992C92.5587 30.688 92.4147 31.192 92.2467 31.504C92.0307 32.056 91.9227 34.012 91.9227 37.372C91.9227 38.02 91.9947 38.344 92.1387 38.344C92.5467 38.32 93.1107 37.816 93.8307 36.832C94.5507 35.824 95.2587 34.54 95.9547 32.98C96.6747 31.42 97.1067 30.64 97.2507 30.64C97.4187 30.64 97.5027 30.736 97.5027 30.928C97.5027 31.6 97.1547 32.668 96.4587 34.132C94.5627 38.164 92.9667 40.18 91.6707 40.18ZM87.2787 28.66C86.6067 28.66 85.8867 29.164 85.1187 30.172C84.3747 31.156 84.0027 32.32 84.0027 33.664C84.0027 35.008 84.1947 36.112 84.5787 36.976C84.9867 37.84 85.5147 38.272 86.1627 38.272C86.9547 38.272 88.1187 36.292 89.6547 32.332C89.6787 32.14 89.7027 31.816 89.7267 31.36C89.7747 30.88 89.8107 30.52 89.8347 30.28C89.6187 29.896 89.2347 29.536 88.6827 29.2C88.1547 28.84 87.6867 28.66 87.2787 28.66ZM98.4679 30.604L100.448 30.388C100.64 30.388 100.808 30.496 100.952 30.712C101.096 30.928 101.168 31.156 101.168 31.396C101.168 31.636 101.084 32.452 100.916 33.844C100.772 35.236 100.7 36.34 100.7 37.156C100.7 37.948 100.772 38.344 100.916 38.344C101.324 38.32 101.888 37.816 102.608 36.832C103.328 35.824 104.036 34.54 104.732 32.98C105.452 31.42 105.884 30.64 106.028 30.64C106.196 30.64 106.28 30.736 106.28 30.928C106.28 31.6 105.932 32.668 105.236 34.132C103.34 38.164 101.744 40.18 100.448 40.18C99.5119 40.18 98.8039 39.988 98.3239 39.604C98.1559 39.436 98.0719 38.392 98.0719 36.472C98.0719 34.552 98.2759 32.908 98.6839 31.54C97.2919 31.54 96.3199 31.096 95.7679 30.208C95.4799 29.752 95.3359 29.236 95.3359 28.66C95.3359 28.084 95.4559 27.58 95.6959 27.148C95.9359 26.716 96.2719 26.5 96.7039 26.5C97.1599 26.5 97.5679 26.74 97.9279 27.22C98.3119 27.676 98.5039 28.192 98.5039 28.768C98.5039 29.344 98.3359 29.92 97.9999 30.496C98.0959 30.568 98.2519 30.604 98.4679 30.604ZM116.104 41.26L117.076 41.152C117.268 41.152 117.364 41.248 117.364 41.44C117.364 41.776 117.136 42.028 116.68 42.196C116.224 42.364 115.708 42.448 115.132 42.448C114.052 42.448 113.14 42.016 112.396 41.152C111.676 40.288 110.668 38.692 109.372 36.364C109.06 35.86 108.904 35.476 108.904 35.212C108.904 34.852 109.408 34.432 110.416 33.952C112.048 33.112 112.864 32.056 112.864 30.784C112.864 30.424 112.732 30.124 112.468 29.884C112.228 29.62 111.904 29.488 111.496 29.488C110.92 29.488 110.236 30.172 109.444 31.54C108.652 32.884 108.112 34.156 107.824 35.356C107.56 36.532 107.428 37.804 107.428 39.172C107.428 39.844 107.236 40.18 106.852 40.18C106.3 40.18 105.772 40.108 105.268 39.964C104.764 39.796 104.512 39.592 104.512 39.352C104.512 39.088 104.608 37.948 104.8 35.932C104.992 33.892 105.1 32.428 105.124 31.54C105.22 26.644 105.508 22.9 105.988 20.308C106.06 20.092 106.384 19.72 106.96 19.192C107.56 18.664 108.04 18.4 108.4 18.4C108.76 18.4 108.928 18.856 108.904 19.768C108.904 20.656 108.712 22.576 108.328 25.528C107.944 28.48 107.704 31.18 107.608 33.628C108.04 32.092 108.724 30.64 109.66 29.272C110.62 27.904 111.58 27.22 112.54 27.22C114.172 27.22 114.988 28.012 114.988 29.596C114.988 30.652 114.676 31.612 114.052 32.476C113.428 33.316 112.588 34 111.532 34.528C111.316 34.624 111.208 34.732 111.208 34.852C111.208 34.972 111.244 35.092 111.316 35.212C112.828 37.876 114.112 39.748 115.168 40.828C115.456 41.116 115.768 41.26 116.104 41.26ZM133.203 39.064C134.499 39.064 135.639 38.608 136.623 37.696C137.631 36.784 138.135 35.74 138.135 34.564C138.135 33.364 137.763 32.26 137.019 31.252C136.203 31.66 135.399 31.864 134.607 31.864C132.759 31.864 131.835 31.288 131.835 30.136C131.835 29.8 132.063 29.5 132.519 29.236C132.975 28.948 133.623 28.804 134.463 28.804C135.327 28.804 136.263 29.056 137.271 29.56C138.231 28.528 138.711 27.364 138.711 26.068C138.711 24.46 138.003 23.188 136.587 22.252C135.195 21.292 133.695 20.812 132.087 20.812C131.751 20.812 131.499 20.824 131.331 20.848C131.307 21.544 131.247 22.66 131.151 24.196C131.007 26.5 130.935 30.016 130.935 34.744C130.935 36.568 130.803 37.48 130.539 37.48C129.507 37.48 128.847 37.336 128.559 37.048C128.271 36.76 128.127 35.932 128.127 34.564C128.127 34.228 128.187 32.848 128.307 30.424C128.451 28 128.523 26.044 128.523 24.556C128.523 23.068 128.571 21.976 128.667 21.28C127.395 21.712 126.711 22.408 126.615 23.368C126.519 24.16 126.339 24.712 126.075 25.024C125.835 25.336 125.499 25.492 125.067 25.492C124.659 25.492 124.383 25.384 124.239 25.168C124.095 24.928 124.023 24.688 124.023 24.448C124.023 22.36 125.643 20.92 128.883 20.128C129.291 18.496 129.939 17.68 130.827 17.68C131.187 17.68 131.367 18.352 131.367 19.696C131.991 19.624 132.759 19.588 133.671 19.588C134.607 19.588 135.675 19.768 136.875 20.128C138.075 20.464 139.119 21.076 140.007 21.964C140.895 22.828 141.339 23.8 141.339 24.88C141.339 26.896 140.367 28.708 138.423 30.316C139.767 31.372 140.439 32.632 140.439 34.096C140.439 35.56 139.983 36.772 139.071 37.732C137.367 39.484 135.087 40.36 132.231 40.36C130.287 40.36 128.895 40.228 128.055 39.964C127.887 39.916 127.707 39.796 127.515 39.604C127.347 39.388 127.263 39.124 127.263 38.812C127.263 38.308 127.755 38.056 128.739 38.056C129.051 38.056 129.735 38.224 130.791 38.56C131.847 38.896 132.651 39.064 133.203 39.064ZM136.263 30.46C135.543 29.86 134.859 29.56 134.211 29.56C133.587 29.56 133.275 29.692 133.275 29.956C133.275 30.508 133.863 30.784 135.039 30.784C135.471 30.784 135.879 30.676 136.263 30.46ZM145.366 30.604L147.346 30.388C147.538 30.388 147.706 30.496 147.85 30.712C147.994 30.928 148.066 31.156 148.066 31.396C148.066 31.636 147.982 32.452 147.814 33.844C147.67 35.236 147.598 36.34 147.598 37.156C147.598 37.948 147.67 38.344 147.814 38.344C148.222 38.32 148.786 37.816 149.506 36.832C150.226 35.824 150.934 34.54 151.63 32.98C152.35 31.42 152.782 30.64 152.926 30.64C153.094 30.64 153.178 30.736 153.178 30.928C153.178 31.6 152.83 32.668 152.134 34.132C150.238 38.164 148.642 40.18 147.346 40.18C146.41 40.18 145.702 39.988 145.222 39.604C145.054 39.436 144.97 38.392 144.97 36.472C144.97 34.552 145.174 32.908 145.582 31.54C144.19 31.54 143.218 31.096 142.666 30.208C142.378 29.752 142.234 29.236 142.234 28.66C142.234 28.084 142.354 27.58 142.594 27.148C142.834 26.716 143.17 26.5 143.602 26.5C144.058 26.5 144.466 26.74 144.826 27.22C145.21 27.676 145.402 28.192 145.402 28.768C145.402 29.344 145.234 29.92 144.898 30.496C144.994 30.568 145.15 30.604 145.366 30.604ZM155.802 40.18C154.458 40.18 153.39 39.676 152.598 38.668C151.806 37.636 151.41 36.472 151.41 35.176C151.41 32.56 151.962 30.58 153.066 29.236C154.17 27.892 155.598 27.22 157.35 27.22C158.166 27.22 158.838 27.448 159.366 27.904C159.894 28.336 160.158 28.936 160.158 29.704C160.158 31.144 159.546 32.356 158.322 33.34C157.122 34.3 155.646 34.804 153.894 34.852C153.99 35.788 154.302 36.604 154.83 37.3C155.382 37.972 156.018 38.308 156.738 38.308C157.458 38.308 158.106 38.14 158.682 37.804C159.258 37.468 159.786 36.988 160.266 36.364C161.274 35.044 162.138 33.544 162.858 31.864C163.05 31.432 163.194 31.12 163.29 30.928C163.41 30.736 163.53 30.64 163.65 30.64C163.794 30.64 163.866 30.736 163.866 30.928C163.866 32.128 163.134 33.928 161.67 36.328C160.086 38.896 158.13 40.18 155.802 40.18ZM153.894 33.988C155.31 33.748 156.342 33.292 156.99 32.62C157.662 31.948 157.998 31.072 157.998 29.992C157.998 28.912 157.65 28.372 156.954 28.372C156.114 28.372 155.406 28.96 154.83 30.136C154.254 31.288 153.942 32.572 153.894 33.988ZM176.933 32.548C177.941 32.548 178.877 32.116 179.741 31.252C180.173 30.82 180.461 30.604 180.605 30.604C180.773 30.604 180.857 30.724 180.857 30.964C180.857 31.204 180.701 31.492 180.389 31.828C179.117 33.244 177.521 33.952 175.601 33.952C175.217 35.728 174.617 37.216 173.801 38.416C172.985 39.592 171.953 40.18 170.705 40.18C169.457 40.18 168.557 39.448 168.005 37.984C167.021 39.448 166.001 40.18 164.945 40.18C162.953 40.18 161.957 38.26 161.957 34.42C161.957 31.756 162.221 29.944 162.749 28.984C162.845 28.816 163.205 28.54 163.829 28.156C164.453 27.772 164.885 27.58 165.125 27.58C165.485 27.58 165.665 27.796 165.665 28.228C165.617 29.356 165.281 30.688 164.657 32.224C164.513 32.512 164.441 33.208 164.441 34.312C164.441 35.392 164.561 36.352 164.801 37.192C165.065 38.008 165.437 38.416 165.917 38.416C166.397 38.416 166.985 37.84 167.681 36.688C167.561 36.088 167.501 35.452 167.501 34.78C167.501 34.084 167.573 33.352 167.717 32.584C167.861 31.792 168.149 31 168.581 30.208C169.013 29.416 169.529 29.02 170.129 29.02C170.321 29.02 170.453 29.08 170.525 29.2C170.621 29.32 170.669 29.608 170.669 30.064C170.669 31.288 170.345 32.812 169.697 34.636C169.793 35.692 170.033 36.592 170.417 37.336C170.825 38.056 171.269 38.416 171.749 38.416C172.445 38.416 173.033 37.972 173.513 37.084C173.993 36.172 174.365 35.068 174.629 33.772C173.741 33.532 173.057 33.076 172.577 32.404C172.097 31.732 171.857 30.964 171.857 30.1C171.857 29.212 172.061 28.456 172.469 27.832C172.901 27.184 173.525 26.86 174.341 26.86C175.445 26.86 175.997 28.048 175.997 30.424C175.997 31.048 175.961 31.696 175.889 32.368C176.249 32.488 176.597 32.548 176.933 32.548ZM174.089 28.228C173.873 28.228 173.765 28.636 173.765 29.452C173.765 30.268 174.137 31.024 174.881 31.72C174.905 31.6 174.917 31.42 174.917 31.18C174.917 29.212 174.641 28.228 174.089 28.228Z" />
</svg>
