<svg width="50" height="50" viewBox="0 0 50 50" fill="none" xmlns="http://www.w3.org/2000/svg">
<path d="M16.2649 49.3013C16.8531 49.3013 17.4403 49.2534 18.0207 49.158C18.2069 49.1278 18.3984 49.0911 18.5882 49.049C19.652 48.814 20.674 48.4189 21.6192 47.8772C24.4407 46.2658 26.6631 43.3239 27.8769 39.5937C28.2854 38.3307 28.5742 37.0322 28.7395 35.7152C29.1418 35.7545 29.5477 35.7764 29.9576 35.7764C32.4431 35.7764 35.0541 35.0577 37.6193 33.6545C40.935 31.8407 43.871 29.0376 46.1098 25.5482C51.1698 17.6646 51.3082 8.30461 46.4396 3.29295C45.6041 2.43119 44.6293 1.71646 43.5562 1.1788C40.3278 -0.440998 36.3533 -0.389894 32.3654 1.32241C28.436 3.00937 24.839 6.1721 22.2368 10.2273C21.4675 11.4251 20.7983 12.6844 20.2362 13.9923C17.956 12.3156 15.3969 11.3503 12.7741 11.3173C11.9529 11.307 11.1331 11.391 10.3309 11.5676C9.96248 11.6486 9.59868 11.7495 9.24117 11.87C5.81572 13.0144 3.04733 15.8664 1.4461 19.9007C-0.131871 23.8743 -0.429527 28.6547 0.607681 33.36C2.65999 42.675 9.32669 49.3013 16.2649 49.3013V49.3013ZM45.7975 5.0817C47.4807 7.16039 48.3714 10.0592 48.3203 13.3467C48.2623 17.0926 46.9784 21.1062 44.7054 24.6471C42.617 27.902 39.8897 30.5106 36.8185 32.1906C34.2024 33.6217 31.4591 34.273 28.9964 34.0632C33.8476 30.2534 37.1142 24.7804 38.1649 18.7021C39.0044 13.8732 41.3435 9.43137 44.8502 6.007L45.7975 5.0817ZM42.0409 4.20438L43.3246 2.95107C43.4289 3.0125 43.5338 3.0756 43.6375 3.14162C43.9868 3.36597 44.3202 3.61415 44.6353 3.8844L43.6844 4.81262C39.9265 8.48203 37.42 13.2419 36.5206 18.4166C35.6121 23.6722 32.9253 28.456 28.9103 31.9668C28.8877 31.2918 28.8371 30.6124 28.7583 29.9286C32.208 26.3411 34.5057 21.8038 35.3561 16.9C36.1859 12.0678 38.5263 7.62296 42.0409 4.20438V4.20438ZM23.6409 11.1285C28.2567 3.93509 35.9535 0.220333 41.7009 2.20464L40.8752 3.01083C37.1091 6.67384 34.6012 11.4365 33.712 16.6145C32.9942 20.7562 31.1677 24.6261 28.4266 27.813C28.3898 27.6275 28.3518 27.442 28.3109 27.2565C27.2048 22.2366 24.738 17.9534 21.5825 15.0948C22.1444 13.7118 22.8335 12.384 23.6409 11.1285V11.1285ZM13.5765 14.3594L13.5896 13.0349C16.25 13.3096 18.9322 14.7244 21.2255 17.08C23.8386 19.7647 25.7763 23.5063 26.6818 27.6157C27.551 31.5617 27.4119 35.6323 26.2908 39.0776C25.4326 41.7143 24.0318 43.8976 22.2669 45.3911C22.9908 39.2652 21.4183 33.0885 17.8532 28.0546C15.0626 24.1216 13.5672 19.4166 13.5749 14.5942C13.5749 14.5164 13.5749 14.4395 13.576 14.3594H13.5765ZM10.3173 15.0777L10.3343 13.2838C10.452 13.2525 10.5703 13.2234 10.6894 13.1973C11.0953 13.1081 11.5068 13.047 11.921 13.0142L11.9079 14.3411C11.9067 14.426 11.9067 14.5096 11.9067 14.5945C11.8983 19.7621 13.5008 24.8039 16.4911 29.0184C19.8626 33.7786 21.3234 39.6314 20.5843 45.4176L20.4317 46.6233C19.9304 46.8819 19.4061 47.0934 18.8656 47.255L18.9803 46.3457C19.1121 45.3025 19.1782 44.2521 19.1784 43.2007C19.1874 38.0318 17.5849 32.9888 14.594 28.7732C11.7557 24.7753 10.2582 19.9803 10.3168 15.0777H10.3173ZM8.659 13.9076L8.64805 15.0614C8.58538 20.3148 10.1901 25.4528 13.2315 29.7367C16.0226 33.6705 17.5182 38.3766 17.51 43.2C17.5098 44.1814 17.4479 45.1619 17.3248 46.1355L17.1408 47.5901C14.1709 47.8717 11.082 46.6834 8.37646 44.2005C5.40877 41.4769 3.2286 37.4995 2.23749 33.001C0.397423 24.6546 3.19627 16.5805 8.659 13.9076V13.9076Z" fill="#A46337"/>
<path d="M28.5912 10.4017C28.802 10.4019 29.0051 10.322 29.1593 10.1783C29.5093 9.85265 29.8773 9.53789 30.2529 9.24273C30.3391 9.17503 30.411 9.09101 30.4647 8.99549C30.5184 8.89997 30.5528 8.79481 30.5658 8.68602C30.5788 8.57723 30.5703 8.46693 30.5407 8.36143C30.5111 8.25593 30.4611 8.15729 30.3934 8.07114C30.3257 7.98499 30.2416 7.91302 30.1461 7.85934C30.0506 7.80566 29.9454 7.77132 29.8367 7.75828C29.7279 7.74524 29.6176 7.75376 29.5121 7.78334C29.4066 7.81293 29.3079 7.863 29.2218 7.93071C28.81 8.25402 28.4066 8.59934 28.0224 8.95634C27.8997 9.07049 27.8141 9.21895 27.777 9.3824C27.7399 9.54584 27.7528 9.71668 27.8141 9.87266C27.8755 10.0286 27.9824 10.1625 28.1209 10.2569C28.2594 10.3512 28.4232 10.4017 28.5908 10.4017H28.5912Z" fill="#A46337"/>
<path d="M24.3278 15.525C24.4259 15.5739 24.5326 15.6029 24.6419 15.6105C24.7512 15.618 24.861 15.604 24.9648 15.5691C25.0687 15.5342 25.1647 15.4792 25.2473 15.4073C25.3299 15.3353 25.3975 15.2477 25.4462 15.1495C25.9779 14.0809 26.6183 13.0699 27.3574 12.1326C27.4269 12.0468 27.4786 11.948 27.5096 11.842C27.5406 11.736 27.5502 11.6249 27.538 11.5152C27.5257 11.4054 27.4918 11.2992 27.4382 11.2027C27.3845 11.1062 27.3123 11.0212 27.2256 10.9528C27.1389 10.8844 27.0395 10.8339 26.9331 10.8042C26.8268 10.7745 26.7156 10.7662 26.606 10.7798C26.4964 10.7934 26.3906 10.8287 26.2947 10.8835C26.1989 10.9383 26.1148 11.0115 26.0475 11.0991C25.2371 12.1266 24.5349 13.235 23.9521 14.4067C23.8537 14.6048 23.8379 14.8339 23.9084 15.0436C23.9788 15.2533 24.1297 15.4265 24.3278 15.525V15.525Z" fill="#A46337"/>
<path d="M8.18613 41.4314C8.32996 41.5996 8.53472 41.7038 8.75537 41.721C8.97601 41.7383 9.19447 41.6671 9.36267 41.5233C9.53087 41.3795 9.63505 41.1747 9.65228 40.9541C9.66951 40.7334 9.59839 40.515 9.45455 40.3468C9.14386 39.9833 8.84454 39.6025 8.56545 39.215C8.4361 39.0354 8.24073 38.9146 8.02231 38.8791C7.80388 38.8436 7.5803 38.8963 7.40074 39.0256C7.22118 39.155 7.10036 39.3503 7.06485 39.5688C7.02934 39.7872 7.08205 40.0108 7.21139 40.1903C7.51791 40.6154 7.84581 41.0329 8.18613 41.4314Z" fill="#A46337"/>
<path d="M10.2446 43.4946C11.2373 44.3473 12.3154 45.0952 13.4618 45.7265C13.5578 45.7797 13.6634 45.8135 13.7724 45.8258C13.8815 45.8382 13.992 45.8289 14.0975 45.7985C14.203 45.7681 14.3014 45.7171 14.3872 45.6486C14.473 45.5801 14.5444 45.4953 14.5973 45.3991C14.6502 45.3029 14.6837 45.1972 14.6957 45.0881C14.7077 44.979 14.6981 44.8686 14.6673 44.7632C14.6366 44.6578 14.5854 44.5595 14.5165 44.4739C14.4477 44.3884 14.3627 44.3172 14.2664 44.2646C13.2208 43.6888 12.2375 43.0067 11.332 42.2291C11.1638 42.0869 10.9464 42.017 10.7269 42.0345C10.5075 42.052 10.3039 42.1555 10.1604 42.3225C10.0169 42.4895 9.9453 42.7064 9.96107 42.926C9.97684 43.1456 10.0787 43.35 10.2446 43.4948V43.4946Z" fill="#A46337"/>
</svg>
